<svg xmlns="http://www.w3.org/2000/svg" xmlns:xlink="http://www.w3.org/1999/xlink" width="256" height="256" version="1.1" viewBox="0 0 228 256"><path id="Path" fill="#5C8DBC" d="M227.616141,75.3066667 C227.614359,71.0133333 226.694344,67.2195556 224.833828,63.9635556 C223.006266,60.7617778 220.269375,58.0782222 216.598219,55.9564444 C186.294703,38.5173333 155.961797,21.1315556 125.668078,3.67466667 C117.501047,-1.03111111 109.5825,-0.859555556 101.476031,3.91377778 C89.4142969,11.0133333 29.0254687,45.544 11.0303906,55.9466667 C3.6195,60.2284444 0.013359375,66.7813333 0.011578125,75.2986667 C0,110.369778 0.011578125,145.44 0,180.512 C0.00178125,184.711111 0.882609375,188.431111 2.6611875,191.638222 C4.48964062,194.936889 7.26482812,197.694222 11.0205937,199.864 C29.0165625,210.266667 89.4134062,244.794667 101.472469,251.896 C109.5825,256.672 117.501047,256.842667 125.67075,252.135111 C155.965359,234.677333 186.300047,217.292444 216.608016,199.853333 C220.363781,197.684444 223.138969,194.925333 224.967422,191.629333 C226.743328,188.422222 227.625937,184.702222 227.627719,180.502222 C227.627719,180.502222 227.627719,110.378667 227.616141,75.3066667"/><path id="Path" fill="#1A4674" d="M114.162094,127.563556 L2.6611875,191.638222 C4.48964062,194.936889 7.26482812,197.694222 11.0205937,199.864 C29.0165625,210.266667 89.4134062,244.794667 101.472469,251.896 C109.5825,256.672 117.501047,256.842667 125.67075,252.135111 C155.965359,234.677333 186.300047,217.292444 216.608016,199.853333 C220.363781,197.684444 223.138969,194.925333 224.967422,191.629333 L114.162094,127.563556"/><path id="Path" fill="#1A4674" d="M81.1368281,146.543111 C87.6250312,157.848 99.8221406,165.472889 113.813859,165.472889 C127.891969,165.472889 140.158547,157.751111 146.613797,146.325333 L114.162094,127.563556 L81.1368281,146.543111"/><path id="Path" fill="#1B598E" d="M227.616141,75.3066667 C227.614359,71.0133333 226.694344,67.2195556 224.833828,63.9635556 L114.162094,127.563556 L224.967422,191.629333 C226.743328,188.422222 227.625938,184.702222 227.627719,180.502222 C227.627719,180.502222 227.627719,110.378667 227.616141,75.3066667"/><polyline id="Path" fill="#FFF" points="221.523 132.143 212.865 132.143 212.865 140.787 204.204 140.787 204.204 132.143 195.547 132.143 195.547 123.502 204.204 123.502 204.204 114.86 212.865 114.86 212.865 123.502 221.523 123.502 221.523 132.143"/><polyline id="Path" fill="#FFF" points="189.928 132.143 181.271 132.143 181.271 140.787 172.612 140.787 172.612 132.143 163.953 132.143 163.953 123.502 172.612 123.502 172.612 114.86 181.271 114.86 181.271 123.502 189.928 123.502 189.928 132.143"/><path id="Path" fill="#FFF" d="M146.613797,146.325333 C140.158547,157.751111 127.891969,165.472889 113.813859,165.472889 C99.8221406,165.472889 87.6250312,157.848 81.1368281,146.543111 C77.9849062,141.049778 76.1724844,134.689778 76.1724844,127.904889 C76.1724844,107.157333 93.0257812,90.3377778 113.813859,90.3377778 C127.715625,90.3377778 139.848609,97.8675556 146.368875,109.056889 L179.269453,90.1484444 C166.192406,67.6186667 141.777703,52.4613333 113.813859,52.4613333 C72.0649219,52.4613333 38.2220625,86.2391111 38.2220625,127.904889 C38.2220625,141.574222 41.8656094,154.392889 48.2335781,165.449778 C61.2776719,188.098667 85.7618437,203.349333 113.813859,203.349333 C141.917531,203.349333 166.44,188.037333 179.465391,165.321778 L146.613797,146.325333"/></svg>